<svg width="81" height="80" viewBox="0 0 81 80" fill="none" xmlns="http://www.w3.org/2000/svg">
<path opacity="0.3" d="M80.5 40C80.5 62.0914 62.5914 80 40.5 80C18.4086 80 0.5 62.0914 0.5 40C0.5 17.9086 18.4086 0 40.5 0C62.5914 0 80.5 17.9086 80.5 40ZM11.4071 40C11.4071 56.0675 24.4325 69.0929 40.5 69.0929C56.5675 69.0929 69.5929 56.0675 69.5929 40C69.5929 23.9325 56.5675 10.9071 40.5 10.9071C24.4325 10.9071 11.4071 23.9325 11.4071 40Z" fill="#E07575"/>
<circle cx="40.5" cy="40" r="29" fill="#DB4444"/>
<path d="M28.5991 50.5992L28.5989 50.5991C27.7262 49.9483 26.9256 48.9206 26.3428 47.759C25.7599 46.5973 25.4167 45.3451 25.4167 44.2666V31.8666C25.4167 29.5074 27.1715 26.9618 29.3912 26.1351L29.3921 26.1348L37.7084 23.0183C37.7085 23.0182 37.7086 23.0182 37.7086 23.0182C38.4621 22.7366 39.4616 22.5874 40.4834 22.5874C41.5051 22.5874 42.5046 22.7366 43.2581 23.0182C43.2581 23.0182 43.2582 23.0182 43.2583 23.0183L51.5746 26.1348L51.5755 26.1351C53.7952 26.9618 55.55 29.5074 55.55 31.8666V44.2499C55.55 45.3371 55.2066 46.5892 54.6241 47.7483C54.0416 48.9073 53.2411 49.9313 52.3678 50.5824L52.3676 50.5826L45.2009 55.9326L45.2009 55.9325L45.1947 55.9373C43.912 56.9264 42.224 57.4332 40.5 57.4332C38.7774 57.4332 37.0852 56.927 35.7649 55.9486C35.7647 55.9484 35.7646 55.9483 35.7644 55.9482L28.5991 50.5992ZM38.2419 24.4315L38.2412 24.4317L29.9246 27.5484L29.9239 27.5486C29.0963 27.8602 28.355 28.5225 27.8241 29.2906C27.293 30.059 26.9334 30.9898 26.9334 31.8832V44.2666C26.9334 45.161 27.2439 46.1892 27.7009 47.101C28.1578 48.0126 28.7933 48.8722 29.5009 49.4005L29.5009 49.4006L36.6672 54.7503C37.7292 55.5445 39.1283 55.9249 40.5021 55.9249C41.8761 55.9249 43.2783 55.5445 44.3478 54.7516L44.3491 54.7506L51.5158 49.4006L51.5167 49.3999C52.2314 48.8638 52.8669 48.005 53.3222 47.0943C53.7776 46.1837 54.0834 45.16 54.0834 44.2666V31.8666C54.0834 30.9804 53.7229 30.0538 53.1926 29.2864C52.6621 28.5189 51.9223 27.854 51.0976 27.5338L51.0977 27.5338L51.0921 27.5317L42.7755 24.415L42.7755 24.4149L42.7664 24.4117C42.1283 24.1865 41.3002 24.0831 40.5007 24.0853C39.7021 24.0875 38.8752 24.1951 38.2419 24.4315Z" fill="#FAFAFA" stroke="#FAFAFA"/>
<path d="M37.9131 41.0536L38.2667 41.4071L38.6202 41.0536L44.9036 34.7703C45.1916 34.4822 45.6751 34.4822 45.9631 34.7703C46.2512 35.0583 46.2512 35.5417 45.9631 35.8298L38.7965 42.9965C38.6452 43.1478 38.4579 43.2167 38.2667 43.2167C38.0755 43.2167 37.8882 43.1478 37.7369 42.9965L35.0536 40.3131C34.7655 40.0251 34.7655 39.5417 35.0536 39.2536C35.3416 38.9655 35.8251 38.9655 36.1131 39.2536L37.9131 41.0536Z" fill="#FAFAFA" stroke="#FAFAFA"/>
</svg>
